Coordinates
version=1
nRows=15
nColumns=38
inDegrees=yes

Units are S.I. units (second, meters, Newtons, ...)
Angles are in degrees.

endheader
time	pelvis_tilt	pelvis_list	pelvis_rotation	pelvis_tx	pelvis_ty	pelvis_tz	hip_flexion_r	hip_adduction_r	hip_rotation_r	knee_angle_r	ankle_angle_r	subtalar_angle_r	mtp_angle_r	hip_flexion_l	hip_adduction_l	hip_rotation_l	knee_angle_l	ankle_angle_l	subtalar_angle_l	mtp_angle_l	lumbar_extension	lumbar_bending	lumbar_rotation	arm_flex_r	arm_add_r	arm_rot_r	elbow_flex_r	pro_sup_r	wrist_flex_r	wrist_dev_r	arm_flex_l	arm_add_l	arm_rot_l	elbow_flex_l	pro_sup_l	wrist_flex_l	wrist_dev_l
      1.45000000	     -0.96018975	     -0.63867304	      2.34689101	      0.30953865	      0.90875951	     -0.18474796	      3.39374227	      4.57378653	     -2.07393755	    -14.39308718	     12.63674806	    -10.90043945	      0.00000000	     31.97125186	      0.18518147	     -6.22448870	    -49.10317428	      3.09715807	    -14.21858173	      0.00000000	     -4.07089365	      2.38565924	      1.51215275	     14.49016845	    -13.97624796	     45.37673166	     30.24364048	     44.38182118	      0.00000000	      0.00000000	    -11.95280698	     -9.26924716	     24.32577819	     22.60688884	     44.38182118	      0.00000000	      0.00000000
      1.46000000	     -1.27355326	     -0.70441456	      1.78713423	      0.32303239	      0.90737503	     -0.18346421	      2.28988384	      4.74886160	     -1.55614013	    -13.42808124	     13.17389980	    -10.72218062	      0.00000000	     32.61271511	      0.07441145	     -6.57405934	    -45.36057326	      3.14740492	    -13.60287413	      0.00000000	     -3.77166222	      2.43018816	      2.18440156	     15.36602650	    -14.13819134	     45.34343182	     30.78589616	     44.38641412	      0.00000000	      0.00000000	    -13.00735777	     -9.11401172	     24.29860190	     22.13781935	     44.38641412	      0.00000000	      0.00000000
      1.47000000	     -1.52123164	     -0.78744260	      1.18220226	      0.33658271	      0.90581149	     -0.18217115	      1.11311341	      4.92574597	     -1.10338558	    -12.40548689	     13.67722883	    -10.55437375	      0.00000000	     33.52847462	     -0.50809190	     -8.37995120	    -41.92874892	      1.95243434	    -13.48351947	      0.00000000	     -3.57591928	      2.48491842	      2.91793366	     16.25861672	    -14.27607391	     45.32040035	     31.38366856	     44.39002795	      0.00000000	      0.00000000	    -14.05045909	     -8.96527314	     24.25635561	     21.68829866	     44.39002795	      0.00000000	      0.00000000
      1.48000000	     -1.50711232	     -0.85467003	      0.56538180	      0.35038801	      0.90412834	     -0.18098352	     -0.58335325	      5.20686925	      0.48190863	    -11.04154006	     13.48470867	    -12.35196987	      0.00000000	     33.43144081	     -0.58002619	     -8.19633444	    -37.84132731	      2.66234412	    -11.76020775	      0.00000000	     -3.70412377	      2.58581803	      3.78225666	     14.51565746	    -15.43622404	     37.23167787	     40.41157514	     44.61194947	      0.00000000	      0.00000000	    -14.65579346	     -8.50145191	     23.42344487	     20.30313837	     44.61194947	      0.00000000	      0.00000000
      1.49000000	     -1.54076394	     -0.86417154	     -0.06822200	      0.36417852	      0.90218510	     -0.17990198	     -1.88365750	      5.23403704	      0.94271902	    -10.33418558	     14.16256821	    -12.10810896	      0.00000000	     33.49095156	     -0.77582324	     -9.08107066	    -33.76825330	      2.39536759	    -11.04037778	      0.00000000	     -3.74367890	      2.58005582	      4.51689681	     15.32077980	    -15.55134320	     37.20612226	     40.96008324	     44.61589538	      0.00000000	      0.00000000	    -15.65408770	     -8.38976873	     23.39956792	     20.00321123	     44.61589538	      0.00000000	      0.00000000
      1.50000000	     -1.45004099	     -0.82273422	     -0.74743259	      0.37827468	      0.90018606	     -0.17900778	     -3.28887172	      5.17046190	      1.52543318	     -9.70183262	     14.85977288	    -12.05770138	      0.00000000	     33.25228449	     -0.92615019	     -9.88321740	    -29.69073267	      2.47762595	     -9.79969721	      0.00000000	     -3.91927954	      2.56998681	      5.30479752	     16.02454062	    -15.77752724	     37.25039495	     41.96616348	     44.62119131	      0.00000000	      0.00000000	    -16.67664754	     -8.20105515	     23.31828823	     19.63185051	     44.62119131	      0.00000000	      0.00000000
      1.51000000	     -1.41846683	     -0.84799217	     -1.37071208	      0.39220498	      0.89779081	     -0.17818688	     -4.54541337	      5.21372887	      2.40171696	     -9.29402433	     15.31100181	    -12.64181450	      0.00000000	     33.11883202	     -1.16195792	    -10.40354369	    -25.94403190	      2.75703241	     -7.87443784	      0.00000000	     -4.07596896	      2.62018960	      6.12494166	     16.02778651	    -16.74320434	     36.85973470	     45.68361023	     44.64980039	      0.00000000	      0.00000000	    -17.47223476	     -7.97745683	     22.74455330	     19.08606076	     44.64980039	      0.00000000	      0.00000000
      1.52000000	     -1.33777964	     -0.73884147	     -1.95519598	      0.40627686	      0.89532025	     -0.17761093	     -5.65892718	      5.03264343	      3.03335386	     -9.20960620	     16.25084946	    -12.72335675	      0.00000000	     32.80734916	     -1.15044037	    -10.74828748	    -22.13065258	      2.65606305	     -7.04644794	      0.00000000	     -4.25011583	      2.51972479	      6.82853481	     16.69406675	    -16.82824374	     36.60779790	     46.27457637	     44.65327811	      0.00000000	      0.00000000	    -18.33871723	     -7.82686160	     22.70212467	     18.88870834	     44.65327811	      0.00000000	      0.00000000
      1.53000000	     -1.26310691	     -0.68605848	     -2.44219176	      0.42017773	      0.89269308	     -0.17716631	     -6.66437374	      4.90222521	      3.47015405	     -9.32668972	     17.06003706	    -12.80175021	      0.00000000	     32.55467281	     -1.22722987	    -11.18480769	    -18.71347606	      2.50952184	     -5.93692043	      0.00000000	     -4.44295977	      2.46797822	      7.42355612	     17.27636472	    -16.98565183	     36.40955568	     47.04931765	     44.65635754	      0.00000000	      0.00000000	    -19.11060049	     -7.69625478	     22.64871665	     18.70666290	     44.65635754	      0.00000000	      0.00000000
      1.54000000	     -1.19782478	     -0.74128452	     -2.75339791	      0.43386379	      0.88982281	     -0.17697611	     -7.64493980	      4.95178674	      4.28189903	     -9.52596509	     17.64270984	    -13.34387136	      0.00000000	     32.59283940	     -1.48279024	    -11.94503175	    -16.24296707	      2.41906882	     -4.03361159	      0.00000000	     -4.72040339	      2.53722535	      8.11298610	     15.31850377	    -17.42759382	     30.18085502	     54.18299506	     44.73598612	      0.00000000	      0.00000000	    -19.74748412	     -7.59467527	     21.00127673	     19.11524069	     44.73598612	      0.00000000	      0.00000000
      1.55000000	     -0.97238217	     -0.61945865	     -3.12942368	      0.44842047	      0.88744570	     -0.17709379	     -8.69747773	      4.69071515	      4.55467273	     -9.96604886	     18.49344486	    -13.19967217	      0.00000000	     32.36948165	     -1.41281315	    -11.72214451	    -14.14979157	      2.12652169	     -3.77965639	      0.00000000	     -4.98758332	      2.42151939	      8.56800968	     15.78549789	    -17.53920279	     30.15931030	     54.69034603	     44.73929839	      0.00000000	      0.00000000	    -20.45350204	     -7.42425506	     20.95067818	     18.95708502	     44.73929839	      0.00000000	      0.00000000
      1.56000000	     -0.97173847	     -0.35029220	     -3.75426796	      0.46247565	      0.88461949	     -0.17700461	     -8.53350127	      4.01753278	      2.58906621	    -12.19242560	     20.93736798	     -9.44591967	      0.00000000	     32.59867139	     -1.30558513	    -10.89684375	    -12.95819580	      1.82030608	     -4.51779227	      0.00000000	     -5.07444349	      2.13905039	      9.35137006	     15.46634183	    -17.95299953	     29.16906537	     57.30046488	     44.78001082	      0.00000000	      0.00000000	    -21.07124490	     -7.21986856	     20.02780551	     19.01810900	     44.78001082	      0.00000000	      0.00000000
      1.57000000	     -1.00475720	     -0.28535621	     -4.13137702	      0.47702367	      0.88212552	     -0.17716541	     -9.24719984	      3.84316332	      2.55603832	    -12.69324848	     21.22754706	     -9.56899966	      0.00000000	     32.95364758	     -1.40320016	    -10.45779119	    -12.57007056	      1.90157623	     -4.33076414	      0.00000000	     -5.02986886	      2.06682242	      9.91413623	     15.67408403	    -17.94988295	     29.14199167	     57.39805543	     44.78040399	      0.00000000	      0.00000000	    -21.54051565	     -7.11310119	     20.02517393	     18.90031662	     44.78040399	      0.00000000	      0.00000000
      1.58000000	     -0.92413840	     -0.22204819	     -4.51514840	      0.49192026	      0.87996157	     -0.17744234	     -9.87386268	      3.61666773	      2.81175248	    -13.72075383	     21.67993017	     -9.38186532	      0.00000000	     32.93654496	     -1.42910930	     -9.93497431	    -12.29533664	      2.19866735	     -4.54816710	      0.00000000	     -5.06636182	      1.99511005	     10.15738806	     15.85279323	    -18.10941871	     29.10385126	     57.78473413	     44.78212139	      0.00000000	      0.00000000	    -22.19855667	     -6.89179371	     19.96482700	     18.70203125	     44.78212139	      0.00000000	      0.00000000
      1.59000000	     -1.00220127	     -0.01617904	     -4.77675188	      0.50691136	      0.87791141	     -0.17804238	     -9.86368854	      2.99025906	      0.99793916	    -15.60805242	     22.73135815	     -6.47330143	      0.00000000	     33.06483863	     -1.15013897	     -8.47316919	    -12.52355867	      1.74369293	     -6.37439115	      0.00000000	     -4.90502934	      1.79685605	     10.62569816	     15.25510510	    -18.57925031	     28.83841145	     60.12980030	     44.79694055	      0.00000000	      0.00000000	    -22.51633108	     -6.64366291	     19.21005741	     18.27811086	     44.79694055	      0.00000000	      0.00000000
